<?xml version="1.0" encoding="utf-8"?>
<!-- Generator: Adobe Illustrator 22.0.1, SVG Export Plug-In . SVG Version: 6.00 Build 0)  -->
<svg version="1.1" id="Capa_1" xmlns="http://www.w3.org/2000/svg" xmlns:xlink="http://www.w3.org/1999/xlink" x="0px" y="0px"
	 viewBox="0 0 512 512" style="enable-background:new 0 0 512 512;" xml:space="preserve">
<style type="text/css">
	.st0{fill:#18615D;}
	.st1{fill:#0E948D;}
</style>
<g>
	<g>
		<path class="st0" d="M338.6,174.9c-0.3-4.1-4-7.2-8.1-6.9c-23.9,1.9-48.9,2.9-74.5,2.9c-60.9,0-117.8-5.5-160.1-15.4
			c-4-0.9-8.1,1.6-9,5.6c-0.9,4,1.6,8.1,5.6,9c43.4,10.2,101.4,15.8,163.5,15.8c26,0,51.4-1,75.7-2.9
			C335.8,182.7,338.9,179,338.6,174.9z"/>
	</g>
</g>
<g>
	<g>
		<path class="st0" d="M338.6,303.5c-0.3-4.1-4-7.2-8.1-6.9c-23.9,1.9-48.9,2.9-74.5,2.9c-60.9,0-117.8-5.5-160.1-15.4
			c-4-0.9-8.1,1.6-9,5.6c-0.9,4,1.6,8.1,5.6,9c43.4,10.2,101.4,15.8,163.5,15.8c26,0,51.4-1,75.7-2.9
			C335.8,311.3,338.9,307.6,338.6,303.5z"/>
	</g>
</g>
<g>
	<g>
		<path class="st1" d="M492,59c-1.6-35.9-98.7-49.9-140.6-54.3c-12.9-1.4-26.5-2.4-40.3-3.2C293.2,0.5,274.6,0,256,0
			c-47.7,0-93.5,3.3-132.4,9.6c-4.1,0.7-6.9,4.5-6.2,8.6c0.7,4.1,4.5,6.9,8.6,6.2C164.1,18.3,209.1,15,256,15
			c18.4,0,36.6,0.5,54.3,1.5c13.6,0.8,26.9,1.8,39.6,3.2c38.8,4.1,71.6,10.5,94.9,18.6c30.7,10.7,32.3,19.9,32.3,21.6
			c0,5.8-12.9,18.7-61.1,29.7c-1.3,0.3-2.7,0.6-4,0.9c-42.2,9.2-97.3,14.3-155.9,14.3s-113.8-5.1-155.9-14.3c-1.4-0.3-2.7-0.6-4-0.9
			C48.2,78.7,35.2,66,34.9,60.1c0-0.1,0-0.1,0-0.2c0-0.1,0-0.1,0-0.2c0.1-3.5,4.4-8,11.8-12.4c9.3-5.5,23-10.6,40.7-15.1
			c4-1,6.4-5.1,5.4-9.1c-1-4-5.1-6.4-9.1-5.4c-42.3,10.9-63.7,25-63.7,42.2v392.2c0,18.4,24.5,33.3,72.8,44.4
			c43.7,10,101.7,15.5,163.3,15.5s119.6-5.5,163.3-15.5c48.3-11.1,72.8-26,72.8-44.4V60.3c0-0.1,0-0.3,0-0.4
			C492.1,59.6,492.1,59.3,492,59z M415.9,481.8c-42.6,9.8-99.4,15.2-160,15.2s-117.3-5.4-160-15.2c-48.2-11.1-61.1-23.9-61.1-29.7
			V344.2c0.2,0.1,0.3,0.2,0.5,0.3c0.4,0.3,0.8,0.5,1.2,0.8c0.3,0.2,0.7,0.4,1,0.7c0.4,0.3,0.9,0.5,1.4,0.8c0.4,0.2,0.7,0.4,1.1,0.6
			c0.5,0.3,1,0.5,1.5,0.8c0.4,0.2,0.7,0.4,1.1,0.6c0.5,0.3,1.1,0.6,1.7,0.9c0.4,0.2,0.7,0.4,1.1,0.5c0.7,0.3,1.4,0.7,2.1,1
			c0.3,0.1,0.5,0.2,0.8,0.4c1,0.5,2,0.9,3,1.3c0.3,0.1,0.7,0.3,1,0.4c0.7,0.3,1.5,0.6,2.2,0.9c0.4,0.2,0.9,0.3,1.3,0.5
			c0.7,0.3,1.4,0.5,2.1,0.8c0.5,0.2,1,0.4,1.5,0.5c0.7,0.2,1.4,0.5,2.1,0.7c0.5,0.2,1,0.4,1.6,0.5c0.7,0.2,1.4,0.5,2.1,0.7
			c0.5,0.2,1.1,0.4,1.7,0.5c0.7,0.2,1.5,0.5,2.2,0.7c0.6,0.2,1.1,0.4,1.7,0.5c0.8,0.2,1.5,0.5,2.3,0.7c0.6,0.2,1.2,0.3,1.8,0.5
			c0.8,0.2,1.6,0.5,2.5,0.7c0.6,0.2,1.2,0.3,1.8,0.5c0.9,0.2,1.8,0.5,2.7,0.7c0.6,0.1,1.1,0.3,1.7,0.4c1,0.3,2,0.5,3.1,0.8
			c0.5,0.1,1,0.2,1.5,0.4c1.5,0.4,3.1,0.7,4.7,1.1c43.7,10,101.7,15.5,163.3,15.5s119.6-5.5,163.3-15.5c1.6-0.4,3.1-0.7,4.7-1.1
			c0.5-0.1,1-0.2,1.5-0.4c1-0.3,2.1-0.5,3.1-0.8c0.6-0.1,1.1-0.3,1.7-0.4c0.9-0.2,1.8-0.5,2.7-0.7c0.6-0.2,1.2-0.3,1.8-0.5
			c0.8-0.2,1.6-0.5,2.5-0.7c0.6-0.2,1.2-0.3,1.8-0.5c0.8-0.2,1.5-0.5,2.3-0.7c0.6-0.2,1.1-0.4,1.7-0.5c0.7-0.2,1.5-0.5,2.2-0.7
			c0.6-0.2,1.1-0.4,1.7-0.5c0.7-0.2,1.4-0.5,2.1-0.7c0.5-0.2,1.1-0.4,1.6-0.5c0.7-0.2,1.4-0.5,2.1-0.7c0.5-0.2,1-0.4,1.5-0.5
			c0.7-0.3,1.4-0.5,2.1-0.8c0.4-0.2,0.9-0.3,1.3-0.5c0.8-0.3,1.5-0.6,2.2-0.9c0.3-0.1,0.7-0.3,1-0.4c1-0.4,2.1-0.9,3-1.3
			c0.3-0.1,0.5-0.2,0.8-0.4c0.7-0.3,1.5-0.7,2.1-1c0.4-0.2,0.7-0.4,1.1-0.5c0.6-0.3,1.1-0.6,1.7-0.9c0.4-0.2,0.7-0.4,1.1-0.6
			c0.5-0.3,1-0.5,1.5-0.8c0.4-0.2,0.7-0.4,1.1-0.6c0.5-0.3,0.9-0.5,1.4-0.8c0.4-0.2,0.7-0.4,1-0.7c0.4-0.3,0.8-0.5,1.2-0.8
			c0.2-0.1,0.3-0.2,0.5-0.3v107.9h0C477.1,457.9,464.2,470.8,415.9,481.8z M476.7,323.2c-2.4,6.4-17,17.9-60.8,27.9
			c-42.6,9.8-99.4,15.2-160,15.2s-117.3-5.4-160-15.2c-43.7-10-58.4-21.5-60.8-27.9c-0.2-0.7-0.4-1.3-0.4-1.8V213.4
			c0.2,0.1,0.3,0.2,0.5,0.3c0.4,0.3,0.8,0.6,1.3,0.8c0.3,0.2,0.7,0.4,1,0.6c0.4,0.3,0.9,0.6,1.4,0.8c0.4,0.2,0.7,0.4,1.1,0.6
			c0.5,0.3,1,0.6,1.5,0.8c0.4,0.2,0.7,0.4,1.1,0.6c0.5,0.3,1.1,0.6,1.7,0.9c0.4,0.2,0.7,0.4,1.1,0.6c0.7,0.3,1.4,0.7,2.1,1
			c0.3,0.1,0.5,0.2,0.8,0.4c1,0.5,2,0.9,3,1.3c0.3,0.1,0.7,0.3,1.1,0.4c0.7,0.3,1.4,0.6,2.2,0.9c0.4,0.2,0.9,0.4,1.4,0.5
			c0.7,0.3,1.3,0.5,2,0.8c0.5,0.2,1,0.4,1.5,0.6c0.7,0.2,1.3,0.5,2,0.7c0.5,0.2,1.1,0.4,1.6,0.6c0.7,0.2,1.4,0.5,2.1,0.7
			c0.6,0.2,1.1,0.4,1.7,0.6c0.7,0.2,1.4,0.5,2.2,0.7c0.6,0.2,1.2,0.4,1.7,0.5c0.8,0.2,1.5,0.5,2.3,0.7c0.6,0.2,1.2,0.3,1.8,0.5
			c0.8,0.2,1.6,0.5,2.4,0.7c0.6,0.2,1.2,0.3,1.8,0.5c0.9,0.2,1.8,0.5,2.6,0.7c0.6,0.2,1.1,0.3,1.7,0.5c1,0.3,2,0.5,3,0.8
			c0.5,0.1,1,0.2,1.5,0.4c1.5,0.4,3.1,0.7,4.7,1.1c43.7,10,101.7,15.5,163.3,15.5S375.6,245,419.3,235c1.6-0.4,3.1-0.7,4.7-1.1
			c0.5-0.1,1-0.2,1.5-0.4c1-0.3,2-0.5,3-0.8c0.6-0.1,1.2-0.3,1.7-0.5c0.9-0.2,1.8-0.5,2.6-0.7c0.6-0.2,1.2-0.3,1.8-0.5
			c0.8-0.2,1.6-0.5,2.4-0.7c0.6-0.2,1.2-0.3,1.8-0.5c0.8-0.2,1.5-0.5,2.3-0.7c0.6-0.2,1.2-0.4,1.7-0.5c0.7-0.2,1.5-0.5,2.2-0.7
			c0.6-0.2,1.1-0.4,1.7-0.6c0.7-0.2,1.4-0.5,2.1-0.7c0.5-0.2,1.1-0.4,1.6-0.6c0.7-0.2,1.4-0.5,2-0.7c0.5-0.2,1-0.4,1.5-0.6
			c0.7-0.3,1.3-0.5,2-0.8c0.5-0.2,0.9-0.4,1.4-0.5c0.7-0.3,1.4-0.6,2.2-0.9c0.4-0.1,0.7-0.3,1.1-0.4c1-0.4,2-0.9,3-1.3
			c0.3-0.1,0.5-0.2,0.8-0.4c0.7-0.3,1.4-0.7,2.1-1c0.4-0.2,0.7-0.4,1.1-0.6c0.6-0.3,1.1-0.6,1.7-0.9c0.4-0.2,0.7-0.4,1.1-0.6
			c0.5-0.3,1-0.6,1.5-0.8c0.4-0.2,0.7-0.4,1.1-0.6c0.5-0.3,0.9-0.6,1.4-0.8c0.3-0.2,0.7-0.4,1-0.6c0.4-0.3,0.9-0.6,1.3-0.8
			c0.2-0.1,0.3-0.2,0.5-0.3v107.9h0C477.1,321.9,477,322.5,476.7,323.2z M415.9,220.4c-42.6,9.8-99.4,15.2-160,15.2
			s-117.3-5.4-160-15.2c-48.2-11.1-61.1-23.9-61.1-29.7V82.7c0.2,0.1,0.3,0.2,0.5,0.3c0.4,0.3,0.8,0.6,1.3,0.8
			c0.3,0.2,0.7,0.4,1,0.6c0.4,0.3,0.9,0.6,1.4,0.8c0.4,0.2,0.7,0.4,1.1,0.6c0.5,0.3,1,0.6,1.5,0.8c0.4,0.2,0.7,0.4,1.1,0.6
			c0.5,0.3,1.1,0.6,1.7,0.9c0.4,0.2,0.7,0.4,1.1,0.6c0.7,0.3,1.4,0.7,2.1,1c0.3,0.1,0.5,0.2,0.8,0.4c1,0.5,2,0.9,3,1.3
			c0.3,0.1,0.7,0.3,1.1,0.4c0.7,0.3,1.4,0.6,2.2,0.9c0.4,0.2,0.9,0.4,1.4,0.5c0.7,0.3,1.3,0.5,2,0.8c0.5,0.2,1,0.4,1.5,0.6
			c0.7,0.2,1.3,0.5,2,0.7c0.5,0.2,1.1,0.4,1.6,0.6c0.7,0.2,1.4,0.5,2.1,0.7c0.6,0.2,1.1,0.4,1.7,0.6c0.7,0.2,1.4,0.5,2.2,0.7
			c0.6,0.2,1.2,0.4,1.7,0.5c0.8,0.2,1.5,0.5,2.3,0.7c0.6,0.2,1.2,0.3,1.8,0.5c0.8,0.2,1.6,0.5,2.4,0.7c0.6,0.2,1.2,0.3,1.8,0.5
			c0.9,0.2,1.8,0.5,2.6,0.7c0.6,0.2,1.1,0.3,1.7,0.5c1,0.3,2,0.5,3,0.8c0.5,0.1,1,0.2,1.5,0.4c1.5,0.4,3.1,0.7,4.7,1.1
			c43.7,10,101.7,15.5,163.3,15.5s119.6-5.5,163.3-15.5c1.6-0.4,3.1-0.7,4.7-1.1c0.5-0.1,1-0.2,1.5-0.4c1-0.3,2-0.5,3-0.8
			c0.6-0.2,1.2-0.3,1.7-0.5c0.9-0.2,1.8-0.5,2.6-0.7c0.6-0.2,1.2-0.3,1.8-0.5c0.8-0.2,1.6-0.5,2.4-0.7c0.6-0.2,1.2-0.3,1.8-0.5
			c0.8-0.2,1.5-0.5,2.3-0.7c0.6-0.2,1.2-0.4,1.7-0.5c0.7-0.2,1.5-0.5,2.2-0.7c0.6-0.2,1.1-0.4,1.7-0.6c0.7-0.2,1.4-0.5,2.1-0.7
			c0.5-0.2,1.1-0.4,1.6-0.6c0.7-0.2,1.4-0.5,2-0.7c0.5-0.2,1-0.4,1.5-0.6c0.7-0.3,1.3-0.5,2-0.8c0.5-0.2,0.9-0.4,1.4-0.5
			c0.7-0.3,1.4-0.6,2.2-0.9c0.4-0.1,0.7-0.3,1.1-0.4c1-0.4,2-0.9,3-1.3c0.3-0.1,0.5-0.2,0.8-0.4c0.7-0.3,1.4-0.7,2.1-1
			c0.4-0.2,0.7-0.4,1.1-0.6c0.6-0.3,1.1-0.6,1.7-0.9c0.4-0.2,0.7-0.4,1.1-0.6c0.5-0.3,1-0.6,1.5-0.8c0.4-0.2,0.7-0.4,1.1-0.6
			c0.5-0.3,0.9-0.6,1.4-0.8c0.3-0.2,0.7-0.4,1-0.6c0.4-0.3,0.9-0.6,1.3-0.8c0.2-0.1,0.3-0.2,0.5-0.3v107.9h0
			C477.1,196.5,464.2,209.3,415.9,220.4z"/>
	</g>
</g>
<g>
	<g>
		<path class="st0" d="M415.5,144.5c-11.4-11.4-30-11.4-41.4,0c-11.4,11.4-11.4,30,0,41.4c5.7,5.7,13.2,8.6,20.7,8.6
			s15-2.9,20.7-8.6C426.9,174.5,426.9,155.9,415.5,144.5z M404.9,175.3c-2.7,2.7-6.3,4.2-10.1,4.2s-7.4-1.5-10.1-4.2
			c-2.7-2.7-4.2-6.3-4.2-10.1s1.5-7.4,4.2-10.1c2.7-2.7,6.3-4.2,10.1-4.2s7.4,1.5,10.1,4.2c2.7,2.7,4.2,6.3,4.2,10.1
			S407.6,172.6,404.9,175.3z"/>
	</g>
</g>
<g>
	<g>
		<path class="st0" d="M415.5,273.5c-11.4-11.4-30-11.4-41.4,0c-11.4,11.4-11.4,30,0,41.4c5.7,5.7,13.2,8.6,20.7,8.6
			s15-2.9,20.7-8.6C426.9,303.5,426.9,284.9,415.5,273.5z M404.9,304.3c-2.7,2.7-6.3,4.2-10.1,4.2s-7.4-1.5-10.1-4.2
			c-2.7-2.7-4.2-6.3-4.2-10.1s1.5-7.4,4.2-10.1c2.7-2.7,6.3-4.2,10.1-4.2s7.4,1.5,10.1,4.2c2.7,2.7,4.2,6.3,4.2,10.1
			S407.6,301.6,404.9,304.3z"/>
	</g>
</g>
<g>
	<g>
		<path class="st0" d="M415.5,402.7c-11.4-11.4-30-11.4-41.4,0c-11.4,11.4-11.4,30,0,41.4c5.7,5.7,13.2,8.6,20.7,8.6
			s15-2.9,20.7-8.6C426.9,432.7,426.9,414.1,415.5,402.7z M404.9,433.5c-2.7,2.7-6.3,4.2-10.1,4.2s-7.4-1.5-10.1-4.2
			c-2.7-2.7-4.2-6.3-4.2-10.1s1.5-7.4,4.2-10.1c2.7-2.7,6.3-4.2,10.1-4.2s7.4,1.5,10.1,4.2c2.7,2.7,4.2,6.3,4.2,10.1
			C409.1,427.2,407.6,430.8,404.9,433.5z"/>
	</g>
</g>
<g>
	<g>
		<path class="st0" d="M338.6,434.6c-0.3-4.1-4-7.2-8.1-6.9c-10.5,0.8-21.3,1.5-32.2,2c-4.1,0.2-7.4,3.7-7.2,7.8
			c0.2,4,3.5,7.2,7.5,7.2c0.1,0,0.2,0,0.3,0c11.1-0.5,22.1-1.2,32.8-2C335.8,442.3,338.9,438.7,338.6,434.6z"/>
	</g>
</g>
<g>
	<g>
		<path class="st0" d="M258.3,430.6C258.3,430.6,258.3,430.6,258.3,430.6l-2.3,0c-60.9,0-117.8-5.5-160.1-15.4c-4-0.9-8.1,1.6-9,5.6
			c-0.9,4,1.6,8.1,5.6,9c43.4,10.2,101.4,15.8,163.5,15.8l2.4,0c4.1,0,7.5-3.4,7.5-7.5C265.8,433.9,262.5,430.6,258.3,430.6z"/>
	</g>
</g>
</svg>
